<svg viewBox="0 0 256 256"><path d="M59 0c-6,0 -11,5 -11,11l0 10 -32 0c-6,0 -11,5 -11,11l0 37 246 0 0 -37c0,-6 -5,-11 -11,-11l-32 0 0 -10c0,-6 -5,-11 -11,-11l-10 0c-6,0 -11,5 -11,11l0 10 -96 0 0 -10c0,-6 -5,-11 -11,-11l-10 0zm0 11l10 0 0 32 -10 0 0 -32zm128 0l10 0 0 32 -10 0 0 -32zm-182 69l0 165c0,7 5,11 11,11l224 0c6,0 11,-4 11,-11l0 -165 -246 0zm54 32l26 0 0 27 -26 0 0 -27zm37 0l27 0 0 27 -27 0 0 -27zm37 0l27 0 0 27 -27 0 0 -27zm38 0l26 0 0 27 -26 0 0 -27zm-112 37l26 0 0 27 -26 0 0 -27zm37 0l27 0 0 27 -27 0 0 -27zm37 0l27 0 0 27 -27 0 0 -27zm38 0l26 0 0 27 -26 0 0 -27zm-112 38l26 0 0 26 -26 0 0 -26zm37 0l27 0 0 26 -27 0 0 -26zm37 0l27 0 0 26 -27 0 0 -26zm38 0l26 0 0 26 -26 0 0 -26z"/></svg>
