<?xml version="1.0"?>
<svg xmlns="http://www.w3.org/2000/svg" xmlns:xlink="http://www.w3.org/1999/xlink" version="1.1" viewBox="0 0 224 224" width="500px" height="500px"><g transform="translate(16.8,16.8) scale(0.85,0.85)"><g fill="none" fill-rule="nonzero" stroke="none" stroke-width="1" stroke-linecap="butt" stroke-linejoin="miter" stroke-miterlimit="10" stroke-dasharray="" stroke-dashoffset="0" font-family="none" font-weight="none" font-size="none" text-anchor="none" style="mix-blend-mode: normal"><path d="M0,224v-224h224v224z" fill="none"/><g id="original-icon" fill="#006fca"><g id="surface1"><path d="M53.76,0c-4.9,0 -8.96,4.06 -8.96,8.96v8.96h-26.88c-5.1975,0 -8.96,3.7625 -8.96,8.96v31.36h206.08v-31.36c0,-5.1975 -3.7625,-8.96 -8.96,-8.96h-26.88v-8.96c0,-4.9 -4.06,-8.96 -8.96,-8.96h-8.96c-4.9,0 -8.96,4.06 -8.96,8.96v8.96h-80.64v-8.96c0,-4.9 -4.06,-8.96 -8.96,-8.96zM53.76,8.96h8.96v26.88h-8.96zM161.28,8.96h8.96v26.88h-8.96zM8.96,67.2v138.88c0,5.1975 3.7625,8.96 8.96,8.96h188.16c5.1975,0 8.96,-3.7625 8.96,-8.96v-138.88zM53.76,94.08h22.4v22.4h-22.4zM85.12,94.08h22.4v22.4h-22.4zM116.48,94.08h22.4v22.4h-22.4zM147.84,94.08h22.4v22.4h-22.4zM53.76,125.44h22.4v22.4h-22.4zM85.12,125.44h22.4v22.4h-22.4zM116.48,125.44h22.4v22.4h-22.4zM147.84,125.44h22.4v22.4h-22.4zM53.76,156.8h22.4v22.4h-22.4zM85.12,156.8h22.4v22.4h-22.4zM116.48,156.8h22.4v22.4h-22.4zM147.84,156.8h22.4v22.4h-22.4z"/></g></g><path d="M112,224c-61.85589,0 -112,-50.14411 -112,-112v0c0,-61.85589 50.14411,-112 112,-112v0c61.85589,0 112,50.14411 112,112v0c0,61.85589 -50.14411,112 -112,112z" fill="none"/><path d="M112,219.52c-59.38166,0 -107.52,-48.13834 -107.52,-107.52v0c0,-59.38166 48.13834,-107.52 107.52,-107.52h0c59.38166,0 107.52,48.13834 107.52,107.52v0c0,59.38166 -48.13834,107.52 -107.52,107.52z" fill="none"/><path d="M0,224v-224h224v224z" fill="none"/><path d="M4.48,219.52v-215.04h215.04v215.04z" fill="none"/><path d="M112,224c-61.85589,0 -112,-50.14411 -112,-112v0c0,-61.85589 50.14411,-112 112,-112v0c61.85589,0 112,50.14411 112,112v0c0,61.85589 -50.14411,112 -112,112z" fill="none"/><path d="M112,219.52c-59.38166,0 -107.52,-48.13834 -107.52,-107.52v0c0,-59.38166 48.13834,-107.52 107.52,-107.52h0c59.38166,0 107.52,48.13834 107.52,107.52v0c0,59.38166 -48.13834,107.52 -107.52,107.52z" fill="none"/><path d="" fill="none"/><path d="" fill="none"/></g></g></svg>
